# xmcd
#
# Track frame offsets:
# 225
# 13927
# 28914
# 44542
# 58312
# 77820
# 97922
# 116262
# 129125
# 145338
# 166462
# 183660
# 202153
#
# Disc length: 2917 seconds
#
#
# Revision: 0
# Processed by: cddbd v1.5.2PL0 Copyright (c) Steve Scherf et al.
# Submitted via: FreeRIP 2.945 
#
DISCID=bb0b620d
DTITLE=Vickie CArrico - Never Been Hurt
DYEAR=2006
DGENRE=Blues
TTITLE0=Didn't Wanna Do it
TTITLE1=Sneakin home again
TTITLE2=You're Taking up Another Man's Place
TTITLE3=Hearsay
TTITLE4=Find Me a Friend
TTITLE5=Just Dance
TTITLE6=Never Been Hurt
TTITLE7=Lose my Mind
TTITLE8=Sugar Up
TTITLE9=Let Go
TTITLE10=If I Ever Needed Love
TTITLE11=Only in it For The Money
TTITLE12=Simply Love
EXTD=
EXTT0=
EXTT1=
EXTT2=
EXTT3=
EXTT4=
EXTT5=
EXTT6=
EXTT7=
EXTT8=
EXTT9=
EXTT10=
EXTT11=
EXTT12=
PLAYORDER=
